<?xml version="1.0" encoding="UTF-8" standalone="no"?><!DOCTYPE svg PUBLIC "-//W3C//DTD SVG 1.1//EN" "http://www.w3.org/Graphics/SVG/1.1/DTD/svg11.dtd"><svg width="100%" height="100%" viewBox="0 0 2701 3350" version="1.1" xmlns="http://www.w3.org/2000/svg" xmlns:xlink="http://www.w3.org/1999/xlink" xml:space="preserve" xmlns:serif="http://www.serif.com/" style="fill-rule:evenodd;clip-rule:evenodd;stroke-linejoin:round;stroke-miterlimit:2;"><path d="M1232.815,1919.67c0,0 4.308,-13.333 8.093,-13.882c6.633,-0.963 3.958,14.812 101.047,15.797c51.69,0.525 127.557,-14.98 127.557,-14.98l-1.845,10.406c0,0 -0.189,44.114 0.108,49.345c1.875,33.015 -2.449,33.021 -0.708,413.349c0.514,112.226 -8.735,226.25 44.069,301.259c87.508,124.306 219.77,105.186 234.63,103.868c70.621,-6.265 144.441,-55.732 167.938,-76.626c113.73,-101.13 143.235,-173.819 150.574,-191.9c11.884,-29.277 25.802,-79.89 25.802,-79.89c-15.884,-3.48 -60.444,-12.101 -60.444,-12.101l-103.601,-17.745l25.846,-26.575c9.008,-8.075 9.011,-7.726 17.611,-16.225c308.309,-304.708 337.005,-327.161 363.24,-354.222c1.644,-1.696 0.51,-1.614 0.8,24.795c0.078,7.092 8.739,274.307 -3.209,333.982c-11.527,57.569 -8.721,57.824 -19.687,115.283c-6.794,35.597 -56.767,158.389 -76.027,192.331c-21.582,38.034 -53.258,108.33 -143.792,198.118c-44.972,44.601 -148.59,127.338 -209.398,155.787c-27.997,13.098 -27.233,14.096 -54.923,27.873c-180.787,89.95 -286.807,114.568 -428.084,253.714l-48.13,38.27l-42.402,-41.355l-75.265,-62.06c-107.914,-78.522 -170.779,-99.248 -196.264,-113.191c-30.722,-16.808 -98.746,-43.045 -126.299,-56.908c-131.781,-66.304 -167.098,-94.654 -215.259,-128.384c-24.511,-17.166 -39.365,-34.147 -49.051,-41.603c-10.035,-7.725 -37.06,-31.977 -46.912,-44.762c-33.767,-43.815 -62.594,-58.95 -117.905,-158.876c-94.985,-171.601 -103.178,-304.918 -109.168,-334.583c-13.686,-67.784 -10.32,-117.566 -5.301,-321.18c0.063,-2.573 -0.136,-43.465 -0.136,-43.465c69.806,71.995 166.555,164.417 202.097,201.358c8.973,9.327 9.515,8.508 115.548,113.236c19.09,18.856 79.039,84.713 79.039,84.713c0,0 -14.116,-1.019 -84.238,17.504l-71.25,14.719c-2.923,20.689 40.201,122.696 93.372,186.912c89.935,108.617 145.768,127.128 185.877,145.659c60.029,27.734 180.897,32.199 252.224,-31.488c13.037,-11.641 78.028,-59.908 92.415,-172.661c2.556,-20.029 2.418,-20.02 2.35,-252.38c-0.008,-27.608 -0.074,-255.266 -1.151,-345.095c0.266,-5.107 -0.203,-13.653 -0.203,-13.653l0.416,-32.487Z" style="fill:#dcc79c;"/><g><rect x="1885.225" y="293.654" width="236.214" height="471.19" style="fill:url(#_Linear1);"/><rect x="2091.43" y="988.389" width="241.357" height="649.73" style="fill:url(#_Linear2);"/><rect x="1120.479" y="1039.592" width="467.441" height="598.527" style="fill:url(#_Linear3);"/><rect x="365.436" y="1002.761" width="241.636" height="635.357" style="fill:url(#_Linear4);"/><path d="M1352.149,0l170.794,164.982l-1358.827,1290.745l-164.115,-172.997l1352.149,-1282.731Z" style="fill:url(#_Linear5);"/><path d="M2700.376,1282.356l-163.719,173.372l-1357.75,-1287.204l171.374,-168.029l1350.096,1281.861Z" style="fill:url(#_Linear6);"/></g><rect x="367.831" y="1712.707" width="1964.899" height="228.119" style="fill:#caa844;"/><defs><linearGradient id="_Linear1" x1="0" y1="0" x2="1" y2="0" gradientUnits="userSpaceOnUse" gradientTransform="matrix(2700.375998,0,0,1772.07877,0,862.025322)"><stop offset="0" style="stop-color:#fff;stop-opacity:1"/><stop offset="0.04" style="stop-color:#93a5a8;stop-opacity:1"/><stop offset="0.08" style="stop-color:#2c4f56;stop-opacity:1"/><stop offset="0.21" style="stop-color:#002a33;stop-opacity:1"/><stop offset="0.62" style="stop-color:#00313c;stop-opacity:1"/><stop offset="1" style="stop-color:#004a58;stop-opacity:1"/></linearGradient><linearGradient id="_Linear2" x1="0" y1="0" x2="1" y2="0" gradientUnits="userSpaceOnUse" gradientTransform="matrix(3136.499101,0,0,1778.257497,-372.629978,748.989999)"><stop offset="0" style="stop-color:#fff;stop-opacity:1"/><stop offset="0.04" style="stop-color:#93a5a8;stop-opacity:1"/><stop offset="0.08" style="stop-color:#2c4f56;stop-opacity:1"/><stop offset="0.21" style="stop-color:#002a33;stop-opacity:1"/><stop offset="0.62" style="stop-color:#00313c;stop-opacity:1"/><stop offset="1" style="stop-color:#004a58;stop-opacity:1"/></linearGradient><linearGradient id="_Linear3" x1="0" y1="0" x2="1" y2="0" gradientUnits="userSpaceOnUse" gradientTransform="matrix(2700.375998,0,0,1638.118748,0,819.059374)"><stop offset="0" style="stop-color:#fff;stop-opacity:1"/><stop offset="0.04" style="stop-color:#93a5a8;stop-opacity:1"/><stop offset="0.08" style="stop-color:#2c4f56;stop-opacity:1"/><stop offset="0.21" style="stop-color:#002a33;stop-opacity:1"/><stop offset="0.62" style="stop-color:#00313c;stop-opacity:1"/><stop offset="1" style="stop-color:#004a58;stop-opacity:1"/></linearGradient><linearGradient id="_Linear4" x1="0" y1="0" x2="1" y2="0" gradientUnits="userSpaceOnUse" gradientTransform="matrix(2700.375998,0,0,1712.524884,0,781.856306)"><stop offset="0" style="stop-color:#fff;stop-opacity:1"/><stop offset="0.04" style="stop-color:#93a5a8;stop-opacity:1"/><stop offset="0.08" style="stop-color:#2c4f56;stop-opacity:1"/><stop offset="0.21" style="stop-color:#002a33;stop-opacity:1"/><stop offset="0.62" style="stop-color:#00313c;stop-opacity:1"/><stop offset="1" style="stop-color:#004a58;stop-opacity:1"/></linearGradient><linearGradient id="_Linear5" x1="0" y1="0" x2="1" y2="0" gradientUnits="userSpaceOnUse" gradientTransform="matrix(1957.240673,-1856.758672,827.160205,871.923541,-569.652215,2641.853285)"><stop offset="0" style="stop-color:#fff;stop-opacity:1"/><stop offset="0.04" style="stop-color:#93a5a8;stop-opacity:1"/><stop offset="0.08" style="stop-color:#2c4f56;stop-opacity:1"/><stop offset="0.21" style="stop-color:#002a33;stop-opacity:1"/><stop offset="0.62" style="stop-color:#00313c;stop-opacity:1"/><stop offset="1" style="stop-color:#004a58;stop-opacity:1"/></linearGradient><linearGradient id="_Linear6" x1="0" y1="0" x2="1" y2="0" gradientUnits="userSpaceOnUse" gradientTransform="matrix(1961.482389,1852.277153,-825.163751,873.813167,-43.068288,-491.402615)"><stop offset="0" style="stop-color:#fff;stop-opacity:1"/><stop offset="0.04" style="stop-color:#93a5a8;stop-opacity:1"/><stop offset="0.08" style="stop-color:#2c4f56;stop-opacity:1"/><stop offset="0.21" style="stop-color:#002a33;stop-opacity:1"/><stop offset="0.62" style="stop-color:#00313c;stop-opacity:1"/><stop offset="1" style="stop-color:#004a58;stop-opacity:1"/></linearGradient></defs></svg>